<?xml version="1.0" encoding="utf-8"?>
<!-- Generator: Adobe Illustrator 24.0.1, SVG Export Plug-In . SVG Version: 6.00 Build 0)  -->
<svg version="1.1" id="Layer_1" xmlns="http://www.w3.org/2000/svg" xmlns:xlink="http://www.w3.org/1999/xlink" x="0px" y="0px"
	 viewBox="0 0 20 20" style="enable-background:new 0 0 20 20;" xml:space="preserve">
<style type="text/css">
	.st0{fill-rule:evenodd;clip-rule:evenodd;}
</style>
<g id="Rounded_Rectangle_1">
	<g>
		<path class="st0" d="M15,3c-0.6,0-1,0.5-1,1v12c0,0.5,0.4,1,1,1s1-0.5,1-1V4C16,3.5,15.6,3,15,3z"/>
	</g>
</g>
<g id="chevron_right_1_">
	<g>
		<path class="st0" d="M11.9,9.3l-6-6C5.7,3.1,5.4,3,5.1,3c-0.6,0-1,0.5-1,1c0,0.3,0.1,0.5,0.3,0.7L9.7,10l-5.3,5.3
			c-0.2,0.2-0.3,0.4-0.3,0.7c0,0.5,0.4,1,1,1c0.3,0,0.5-0.1,0.7-0.3l6-6c0.2-0.2,0.3-0.4,0.3-0.7S12,9.5,11.9,9.3z"/>
	</g>
</g>
</svg>
