<svg xmlns="http://www.w3.org/2000/svg" viewBox="0 0 20 20" enable-background="new 0 0 20 20">
  <path fill-rule="evenodd" clip-rule="evenodd" d="M10 8h5c.55 0 1-.45 1-1V6c0-.55-.45-1-1-1h-5C9.45 5 9 5.45 9 6v1C9 7.55 9.45 8 10 8zm0 5h7c.55 0 1-.45 1-1v-1c0-.55-.45-1-1-1h-7c-.55 0-1 .45-1 1v1c0 .55.45 1 1 1zm0-10h3c.55 0 1-.45 1-1V1c0-.55-.45-1-1-1h-3C9.45 0 9 .45 9 1v1c0 .55.45 1 1 1zm9 11h-9c-.55 0-1 .45-1 1v1c0 .55.45 1 1 1h9c.55 0 1-.45 1-1v-1C20 15.45 19.55 15 19 15zm-12-1c-.28 0-.53.11-.71.29L5 15.59V10c0-.55-.45-1-1-1s-1 .45-1 1v5.59L2.29 14.7C2.11 14.89 1.86 15 1.58 15C1.03 15 1 15.45 1 16c0 .28.11.53.29.71l3 3C4.47 19.89 4.72 20 5 20s.53-.11.71-.29l3-3C8.89 15.53 9 15.28 9 15c0-.55-.45-1-1-1z"/>
</svg>
