<svg xmlns="http://www.w3.org/2000/svg" viewBox="0 0 20 20" enable-background="new 0 0 20 20">
  <path fill-rule="evenodd" clip-rule="evenodd" d="M13 15h-3c-.55 0-1 .45-1 1v1c0 .55.45 1 1 1h3c.55 0 1-.45 1-1v-1C14 15.45 13.55 15 13 15zM7 14c-.28 0-.53.11-.71.29L5 15.59V10c0-.55-.45-1-1-1s-1 .45-1 1v5.59L2.29 14.7C2.11 14.89 1.86 15 1.58 15C1.03 15 1 15.45 1 16c0 .28.11.53.29.71l3 3C4.47 18.89 4.72 19 5 19s.53-.11.71-.29l3-3C7.89 15.53 8 15.28 8 15C8 14.45 7.55 14 7 14zM19 0h-9C9.45 0 9 .45 9 1v1c0 .55.45 1 1 1h9c.55 0 1-.45 1-1V1C20 .45 19.55 0 19 0zM15 10h-5c-.55 0-1 .45-1 1v1c0 .55.45 1 1 1h5c.55 0 1-.45 1-1v-1C16 10.45 15.55 10 15 10zM17 5h-7C9.45 5 9 5.45 9 6v1c0 .55.45 1 1 1h7c.55 0 1-.45 1-1V6C18 5.45 17.55 5 17 5z"/>
</svg>
