<svg id="Layer_1" data-name="Layer 1" xmlns="http://www.w3.org/2000/svg" viewBox="0 0 28.74 25.87"><defs><style>.cls-1{fill:#fff;}.cls-2{fill:#3f4650;}</style></defs><title>fav</title><rect class="cls-1" x="11.5" y="18.68" width="14.37" height="4.31"/><rect class="cls-1" x="2.87" y="7.19" width="7.19" height="4.31"/><rect class="cls-1" x="2.87" y="18.68" width="7.19" height="4.31"/><rect class="cls-1" x="2.87" y="12.93" width="7.19" height="4.31"/><rect class="cls-1" x="11.5" y="12.93" width="14.37" height="4.31"/><rect class="cls-1" x="11.5" y="7.19" width="14.37" height="4.31"/><path class="cls-2" d="M28.94,2.69H3.07A1.44,1.44,0,0,0,1.63,4.12v23a1.45,1.45,0,0,0,1.44,1.44H28.94a1.54,1.54,0,0,0,1.43-1.44v-23A1.54,1.54,0,0,0,28.94,2.69Zm-17.25,23H4.51V21.37h7.18Zm0-5.75H4.51V15.62h7.18Zm0-5.75H4.51V9.87h7.18ZM27.5,25.68H13.13V21.37H27.5Zm0-5.75H13.13V15.62H27.5Zm0-5.75H13.13V9.87H27.5Z" transform="translate(-1.63 -2.69)"/></svg>