<?xml version="1.0" standalone="no"?>
<!DOCTYPE svg PUBLIC "-//W3C//DTD SVG 20010904//EN"
 "http://www.w3.org/TR/2001/REC-SVG-20010904/DTD/svg10.dtd">
<svg version="1.0" xmlns="http://www.w3.org/2000/svg"
 width="928.000000pt" height="928.000000pt" viewBox="0 0 928.000000 928.000000"
 preserveAspectRatio="xMidYMid meet">
<metadata>
Created by potrace 1.14, written by Peter Selinger 2001-2017
</metadata>
<g transform="translate(0.000000,928.000000) scale(0.100000,-0.100000)"
fill="#000000" stroke="none">
<path d="M351 8794 c-168 -45 -292 -171 -336 -341 -13 -50 -15 -517 -15 -3818
0 -4109 -4 -3808 56 -3927 34 -67 125 -158 192 -192 119 -60 -225 -56 4382
-56 3753 0 4222 2 4275 15 174 46 314 186 360 360 13 53 15 473 15 3800 0
3327 -2 3747 -15 3800 -46 176 -184 314 -360 360 -53 13 -521 15 -4280 14
-3652 0 -4227 -2 -4274 -15z m2899 -2999 l0 -695 -1160 0 -1160 0 0 695 0 695
1160 0 1160 0 0 -695z m5100 0 l0 -695 -2320 0 -2320 0 0 695 0 695 2320 0
2320 0 0 -695z m-5102 -1857 l2 -698 -1160 0 -1160 0 0 700 0 700 1158 -2
1157 -3 3 -697z m5102 7 l0 -695 -2320 0 -2320 0 0 688 c0 379 3 692 7 695 3
4 1047 7 2320 7 l2313 0 0 -695z m-5100 -1860 l0 -695 -1160 0 -1160 0 0 695
0 695 1160 0 1160 0 0 -695z m5100 0 l0 -695 -2320 0 -2320 0 0 695 0 695
2320 0 2320 0 0 -695z"/>
</g>
</svg>
